<?xml version="1.0" standalone="no"?>
<!DOCTYPE svg PUBLIC "-//W3C//DTD SVG 20010904//EN"
 "http://www.w3.org/TR/2001/REC-SVG-20010904/DTD/svg10.dtd">
<svg version="1.0" xmlns="http://www.w3.org/2000/svg"
 width="960.000000pt" height="960.000000pt" viewBox="0 0 960.000000 960.000000"
 preserveAspectRatio="xMidYMid meet">
<metadata>
Created by potrace 1.14, written by Peter Selinger 2001-2017
</metadata>
<g transform="translate(0.000000,960.000000) scale(0.100000,-0.100000)"
fill="#000000" stroke="none">
<path d="M747 6310 c-63 -14 -115 -39 -168 -82 -27 -22 -70 -98 -86 -152 -13
-44 -15 -148 -15 -721 0 -473 3 -685 12 -720 13 -58 54 -132 87 -158 13 -10
21 -23 17 -28 -3 -5 -2 -9 3 -7 4 1 33 -10 63 -25 30 -15 75 -30 100 -35 45
-8 3552 -9 3580 -1 14 4 32 27 46 59 3 8 12 29 20 47 8 17 14 35 14 40 0 5 7
18 16 29 15 19 15 19 6 -1 -6 -11 -10 -22 -10 -25 0 -3 -5 -18 -11 -33 -15
-40 -14 -92 3 -106 21 -17 4413 -18 4477 -1 24 7 52 19 62 27 9 9 17 12 17 7
0 -5 5 -1 11 9 6 9 14 15 20 12 5 -4 9 -2 9 4 0 5 12 22 28 38 43 46 56 65 77
113 19 43 20 75 23 715 2 457 0 690 -8 734 -17 100 -53 163 -126 221 -60 47
49 45 -1961 48 l-1881 2 -30 -62 c-36 -75 -48 -104 -51 -128 0 -5 -6 -10 -12
-10 -8 0 -8 5 1 15 7 8 10 15 7 15 -3 0 3 20 12 45 9 25 15 60 13 80 -4 30 -8
35 -38 41 -18 3 -983 7 -2144 8 -1873 1 -2120 -1 -2183 -14z m4322 -230 c-6
-16 -15 -30 -19 -30 -5 0 -3 14 3 30 6 17 15 30 19 30 4 0 2 -13 -3 -30z m-42
-95 c-12 -30 -26 -55 -30 -55 -4 0 -4 8 2 18 5 9 16 34 24 55 25 58 28 43 4
-18z m-33 -82 c-10 -29 -35 -83 -39 -83 -1 0 4 22 13 50 10 27 20 50 24 50 4
0 5 -8 2 -17z m-53 -133 c-26 -58 -34 -62 -14 -7 9 26 21 47 25 47 4 0 -1 -18
-11 -40z m-29 -77 c-5 -10 -16 -34 -24 -53 -8 -19 -23 -52 -32 -73 -9 -21 -16
-44 -16 -51 0 -8 -6 -19 -14 -25 -13 -11 36 131 54 154 4 6 10 22 14 38 3 15
11 27 16 27 6 0 7 -7 2 -17z m-112 -263 c-11 -22 -18 -40 -15 -40 4 0 -1 -12
-9 -27 -8 -16 -25 -52 -37 -81 -12 -29 -23 -51 -26 -49 -6 7 90 237 99 237 5
0 -1 -18 -12 -40z m-94 -237 c-7 -16 -28 -65 -46 -111 -18 -45 -35 -80 -37
-78 -9 8 80 216 92 216 3 0 -1 -12 -9 -27z m-89 -215 c-3 -7 -31 -76 -62 -153
-32 -77 -62 -151 -68 -165 -6 -14 -10 -28 -9 -32 1 -5 -2 -8 -8 -8 -14 0 -13
2 16 67 42 97 114 279 114 291 0 7 5 12 11 12 6 0 9 -6 6 -12z m-153 -383 c-4
-8 -10 -15 -15 -15 -4 0 -6 7 -3 15 4 8 10 15 15 15 4 0 6 -7 3 -15z"/>
<path d="M1527 4303 c-3 -3 -44 -5 -91 -4 -87 0 -114 -10 -117 -45 -1 -8 -3
-18 -4 -24 -1 -5 -3 -17 -4 -25 -1 -12 -16 -15 -85 -13 -54 2 -89 -2 -98 -10
-8 -6 -18 -9 -21 -5 -4 3 -7 1 -7 -6 0 -8 -5 -7 -16 3 -17 17 -26 18 -211 17
l-122 -1 1 29 c1 37 -8 50 -48 67 -64 27 -143 14 -189 -31 -15 -16 -20 -34
-21 -92 -1 -40 2 -73 7 -73 13 0 11 -34 -2 -47 -12 -12 -15 -85 -5 -102 21
-33 158 -57 190 -33 6 5 22 7 36 5 23 -5 362 -7 385 -3 6 1 21 -1 35 -5 14 -3
59 -5 100 -5 41 1 120 2 175 1 126 0 161 5 170 27 8 20 7 325 -1 345 -6 16
-49 39 -57 30z"/>
<path d="M1813 4293 c-31 -6 -35 -13 -95 -164 -40 -99 -54 -146 -51 -174 1
-21 5 -40 8 -43 2 -3 27 -7 55 -10 53 -5 100 15 100 43 0 23 16 18 49 -14 l30
-29 398 0 c219 1 405 5 414 9 9 5 19 5 23 2 11 -11 37 -14 116 -12 41 1 104 1
140 0 102 -3 105 2 103 201 -1 93 -6 165 -12 172 -6 7 -8 15 -6 18 3 3 -21 5
-54 4 -33 0 -64 -5 -70 -11 -9 -9 -18 -45 -20 -82 -1 -7 -27 -11 -80 -10 -44
0 -93 -5 -109 -12 -24 -10 -35 -10 -53 0 -16 8 -69 12 -166 11 l-143 -2 0 25
c0 37 -20 73 -44 79 -67 18 -126 -15 -126 -72 l0 -28 -95 -2 c-97 -1 -135 -12
-135 -37 0 -32 -16 -11 -43 54 -15 38 -36 72 -45 76 -23 9 -62 12 -89 8z"/>
<path d="M3213 4289 c-16 -6 -23 -19 -28 -53 -8 -53 -3 -312 7 -321 11 -11 85
-18 113 -11 14 4 30 17 35 29 5 12 9 16 9 9 2 -26 27 -38 84 -41 44 -2 58 1
63 13 5 14 10 13 42 -2 42 -21 109 -19 157 4 28 13 35 13 63 -2 32 -15 112
-22 131 -10 11 7 21 -17 21 -49 0 -28 24 -38 89 -37 47 1 66 17 66 57 0 16 8
21 38 23 20 2 37 7 37 12 0 6 9 6 23 1 31 -12 225 -13 232 -1 3 4 27 2 54 -5
28 -7 52 -11 54 -8 3 2 59 5 126 5 81 0 126 4 138 13 15 11 17 31 16 171 -1
213 1 202 -48 210 -85 12 -111 -7 -114 -88 -1 -16 -13 -18 -100 -17 l-100 0
-6 30 c-4 16 -7 29 -8 30 -1 0 -24 3 -51 6 -28 3 -56 13 -67 24 -19 19 -63 24
-106 13 -24 -7 -42 -47 -37 -81 4 -21 0 -22 -54 -21 -31 0 -95 0 -142 0 -47
-1 -98 -1 -115 0 -41 2 -95 -11 -95 -24 0 -6 -12 -3 -26 7 -24 15 -118 22
-179 13 -15 -2 -20 3 -21 23 -2 53 -14 79 -37 80 -12 1 -35 3 -52 4 -16 1 -36
-3 -42 -8 -7 -5 -13 -6 -13 -1 -1 5 -7 -2 -14 -15 l-14 -24 -6 21 c-4 12 -15
22 -24 23 -9 0 -30 2 -47 4 -16 1 -40 -1 -52 -6z"/>
<path d="M4945 4252 c-61 -28 -104 -131 -88 -212 4 -19 7 -38 8 -42 0 -10 75
-93 75 -84 0 5 7 3 16 -5 14 -11 64 -14 174 -9 14 1 43 1 65 0 54 -1 220 -3
270 -2 22 1 41 6 43 11 2 6 9 8 15 4 20 -13 40 -15 117 -14 41 0 98 0 125 0
28 0 56 0 63 0 15 1 57 0 99 -1 21 0 34 -6 38 -17 12 -35 57 -55 125 -56 135
0 160 31 160 197 0 151 1 150 -127 152 -72 1 -105 -3 -116 -13 -14 -11 -20
-11 -34 0 -12 11 -63 14 -232 13 l-216 0 -1 34 c-1 47 -26 64 -91 60 -28 -2
-50 -4 -48 -6 2 -2 -3 -15 -10 -29 -7 -14 -12 -34 -10 -44 3 -15 -2 -19 -23
-19 -37 0 -55 13 -57 42 -5 55 -5 55 -163 55 -104 -1 -156 -5 -177 -15z m163
-153 c34 1 25 -33 -9 -34 -14 -1 -30 -5 -36 -8 -5 -4 -18 0 -29 7 -16 12 -16
16 -4 31 9 11 21 14 34 10 12 -4 31 -6 44 -6z"/>
<path d="M6380 4263 c-22 -9 -28 -21 -36 -78 -3 -27 -8 -59 -10 -70 -3 -11 -7
-58 -10 -105 -7 -101 -1 -111 72 -109 27 0 75 0 107 0 31 -1 65 2 74 8 11 6
24 5 37 -4 15 -10 33 -11 65 -5 24 4 56 5 70 1 14 -4 80 -6 146 -4 66 1 130 3
142 3 46 0 51 18 51 185 -1 146 -2 157 -22 170 -26 19 -95 19 -120 0 -10 -8
-20 -27 -22 -42 -1 -15 -2 -31 -3 -34 -1 -3 -38 -6 -83 -6 -46 -1 -92 -3 -103
-4 -15 -3 -20 3 -26 35 -9 54 -31 68 -106 64 -34 -1 -61 -5 -61 -8 2 -27 -4
-30 -28 -11 -26 21 -97 28 -134 14z"/>
<path d="M7193 4258 c-22 -11 -23 -16 -23 -133 0 -140 12 -180 60 -208 41 -25
134 -30 180 -10 56 24 66 27 57 18 -14 -16 45 -31 95 -25 27 4 51 4 53 0 2 -3
23 -5 47 -3 24 2 69 3 102 3 66 -1 86 11 86 49 1 25 2 25 22 -10 21 -34 25
-36 79 -38 60 -2 89 14 89 47 0 13 6 11 25 -10 40 -43 119 -56 195 -33 8 3 29
1 45 -3 37 -10 96 2 110 22 10 13 13 13 24 -2 17 -24 46 -27 171 -20 25 1 116
-1 187 -4 59 -3 83 19 83 75 1 19 2 20 10 6 7 -12 5 -30 -4 -55 -14 -41 -7
-81 17 -96 32 -21 132 0 132 27 0 6 22 55 49 110 59 123 68 189 27 203 -32 10
-105 5 -109 -8 -2 -6 -11 -6 -23 1 -11 5 -38 11 -61 13 -31 2 -42 8 -44 21 -4
28 -20 38 -67 39 -28 1 -51 9 -63 20 -14 14 -28 17 -65 14 -50 -5 -74 -21 -75
-50 -4 -60 -4 -59 -21 -50 -10 5 -81 8 -158 5 -77 -2 -156 -4 -175 -2 -19 1
-55 2 -80 1 -85 -1 -105 -1 -137 2 -18 2 -43 -2 -55 -8 -18 -9 -29 -9 -48 1
-14 7 -32 10 -42 7 -19 -6 -25 2 -32 42 -7 38 -31 54 -82 54 -40 0 -72 -17
-75 -41 -2 -10 -6 -42 -8 -59 -1 -7 -7 -7 -18 -2 -10 5 -53 8 -95 7 l-77 -2
-6 38 c-8 46 -18 55 -72 58 -51 3 -83 -13 -84 -42 -1 -20 -2 -20 -12 5 -14 36
-84 50 -134 26z"/>
<path d="M4069 3803 c-31 -8 -52 -65 -47 -124 4 -41 1 -62 -13 -89 -16 -28
-19 -31 -19 -13 0 12 -5 34 -12 48 -9 21 -18 25 -52 25 l-42 0 4 40 c3 30 -1
47 -14 61 -17 19 -26 20 -89 14 -38 -4 -76 -8 -83 -8 -25 -1 -62 -46 -62 -75
0 -21 -8 -35 -27 -47 -25 -17 -29 -17 -56 -2 -22 13 -54 17 -133 17 -92 0
-104 2 -104 18 -1 44 -22 59 -89 61 -36 1 -74 9 -85 17 -25 17 -97 19 -114 2
-7 -7 -12 -36 -12 -65 0 -33 -4 -53 -11 -53 -7 0 -17 -7 -24 -17 -11 -15 -15
-14 -46 10 -32 24 -42 26 -120 24 -72 -2 -89 -6 -114 -25 -25 -20 -31 -21 -33
-9 -2 9 -18 20 -35 26 -38 13 -275 12 -299 0 -13 -7 -17 -29 -20 -118 -1 -60
-6 -113 -10 -116 -4 -4 -14 -5 -23 -2 -12 5 -15 26 -15 109 0 57 -4 109 -9
117 -12 18 -106 27 -125 12 -9 -8 -22 -8 -38 -2 -14 5 -146 9 -294 9 -259 0
-270 0 -292 -21 -19 -18 -22 -18 -22 -4 0 9 -8 17 -17 18 -78 5 -93 3 -105
-13 -13 -18 -34 -26 -23 -9 14 24 -46 29 -323 27 l-292 -1 0 37 c0 30 -6 42
-33 62 -36 28 -98 38 -152 26 -38 -9 -81 -41 -83 -63 -8 -100 -9 -98 20 -119
27 -19 28 -22 28 -111 1 -98 13 -171 33 -191 21 -22 72 -34 118 -29 24 3 58 4
74 2 156 -15 215 6 240 85 6 20 15 17 19 -6 5 -30 38 -78 54 -79 9 -1 30 -3
45 -5 16 -1 41 2 55 7 26 10 82 66 82 82 0 4 4 7 8 7 4 0 14 -20 21 -45 14
-47 16 -48 84 -47 47 1 64 14 73 55 l7 32 18 -42 c10 -24 24 -44 31 -44 82 -7
96 -4 113 23 l16 28 22 -20 c31 -29 92 -43 164 -37 120 9 140 40 152 232 1 6
16 12 35 13 l34 2 4 -109 c2 -63 8 -115 15 -122 16 -16 133 -14 133 3 0 4 19
1 41 -7 81 -29 196 -13 235 33 26 29 34 63 34 143 0 55 2 59 23 57 12 0 29 1
37 3 12 3 16 -15 20 -106 3 -60 9 -117 13 -125 8 -16 88 -20 119 -6 9 4 25 3
35 -2 15 -8 74 -9 128 -2 6 0 33 -1 60 -3 28 -2 55 0 61 4 6 5 24 5 41 0 47
-14 254 -6 263 9 6 10 16 10 47 -2 48 -20 244 -18 267 2 13 10 19 10 31 0 8
-7 44 -14 79 -16 49 -2 72 2 102 18 22 11 42 25 45 30 4 6 13 0 22 -12 20 -29
64 -36 197 -33 58 1 112 2 120 2 8 0 58 -1 110 -2 52 -2 105 1 117 6 25 11 29
22 32 101 2 35 8 65 17 73 16 16 15 19 18 -67 3 -80 12 -110 34 -111 120 -10
124 -4 120 166 -3 115 -6 134 -26 167 -27 44 -63 58 -147 58 -69 0 -124 -15
-142 -39 -10 -14 -12 -14 -18 1 -4 10 -4 37 -1 60 4 24 7 50 9 58 1 8 -2 30
-5 48 l-7 32 -103 -1 c-57 -1 -110 -3 -119 -6z m-3385 -208 c-4 -8 -10 -12
-15 -9 -11 6 -2 24 11 24 5 0 7 -7 4 -15z m433 -110 c0 -8 -4 -12 -9 -9 -4 3
-8 9 -8 15 0 5 4 9 8 9 5 0 9 -7 9 -15z m2613 -31 c0 -36 -33 -61 -42 -33 -2
5 -22 13 -46 16 -51 7 -54 18 -7 26 19 3 43 13 52 22 16 16 18 16 30 -1 7 -10
13 -23 13 -30z m-290 -24 c0 -39 -1 -39 -25 -28 -18 8 -25 19 -25 40 0 23 4
28 25 28 22 0 25 -4 25 -40z"/>
<path d="M9010 3771 c-17 -14 -20 -35 -24 -191 -2 -96 -5 -176 -5 -178 -1 -1
-10 2 -20 8 -17 8 -20 24 -23 115 -2 80 -7 108 -18 115 -16 10 -154 13 -205 4
-23 -4 -34 -14 -47 -42 l-16 -37 -1 32 c-1 36 -23 53 -65 53 -23 0 -26 4 -26
35 0 40 -38 84 -74 86 -106 5 -126 1 -157 -32 -19 -21 -29 -42 -29 -63 l0 -31
-188 2 c-103 1 -213 3 -244 3 -31 1 -61 -1 -67 -5 -7 -4 -11 10 -11 39 0 57
-25 86 -74 86 -44 0 -66 -9 -66 -26 0 -11 -18 -14 -77 -14 -98 -1 -121 -13
-119 -62 1 -31 -1 -35 -16 -27 -10 5 -68 9 -130 8 -62 -1 -139 -1 -170 0 -56
1 -58 2 -58 29 0 43 -10 49 -85 51 -45 2 -76 8 -86 17 -11 10 -34 14 -68 13
-49 -2 -51 -4 -57 -36 -3 -18 -4 -43 -1 -55 6 -22 -16 -58 -36 -58 -5 0 -21 9
-36 19 -24 18 -46 19 -241 19 -165 0 -221 -4 -242 -14 -24 -13 -32 -13 -58 1
-20 11 -59 15 -135 15 -105 0 -105 0 -105 24 0 49 -20 56 -163 55 -73 0 -139
-3 -147 -7 -16 -7 -22 -23 -22 -57 0 -19 -6 -20 -137 -18 -183 4 -192 2 -213
-45 -17 -36 -17 -36 -17 -9 -1 49 -20 57 -125 57 -125 0 -126 -1 -126 -135 0
-106 -8 -129 -35 -101 -11 11 -15 39 -15 110 0 112 -9 126 -75 126 -74 0 -77
-7 -73 -206 2 -95 6 -175 10 -179 13 -13 212 -16 255 -4 28 8 47 8 55 2 7 -6
33 -9 57 -8 55 2 71 22 71 92 0 29 3 53 8 53 21 -1 31 -21 33 -72 2 -52 5 -58
28 -66 39 -14 93 -7 108 14 13 18 14 137 2 199 -3 16 3 20 43 23 l46 3 4 -114
c1 -64 6 -118 9 -121 13 -14 96 -16 114 -3 15 12 25 12 64 0 54 -17 132 -11
167 12 13 8 24 11 24 5 0 -5 7 -10 16 -10 8 0 13 -4 10 -8 -8 -14 91 -7 108 7
13 11 16 34 16 110 0 101 8 128 34 118 13 -5 16 -23 16 -90 0 -93 8 -149 21
-142 4 3 10 1 13 -4 7 -11 100 -5 104 7 1 5 21 3 44 -5 97 -33 223 -3 250 61
16 39 15 34 17 109 l1 63 40 2 40 3 0 -110 c0 -100 2 -111 21 -125 14 -10 35
-13 63 -9 22 3 52 4 66 4 135 -7 263 -5 271 6 8 9 21 8 54 -4 66 -22 178 -12
215 20 19 16 50 14 50 -4 0 -14 66 -27 117 -22 26 3 57 3 68 2 11 -2 56 -3
101 -3 65 -1 84 3 99 17 11 11 24 15 34 11 70 -30 101 -36 163 -31 37 2 74 9
81 16 8 6 17 8 20 4 4 -3 7 -1 7 5 0 6 6 17 13 24 7 7 17 29 23 48 l10 35 22
-61 c13 -33 29 -61 35 -62 7 0 23 -3 36 -6 58 -13 111 13 154 77 15 22 15 22
31 -15 22 -51 46 -61 151 -64 121 -3 135 6 135 85 0 53 2 59 19 54 15 -4 20
-17 25 -61 3 -32 6 -61 7 -67 4 -15 337 -13 374 3 54 22 60 53 60 285 0 198
-1 209 -20 220 -30 17 -84 16 -105 -2z m-1535 -251 c3 -5 1 -10 -4 -10 -6 0
-11 5 -11 10 0 6 2 10 4 10 3 0 8 -4 11 -10z m746 -27 c13 -16 12 -17 -3 -4
-10 7 -18 15 -18 17 0 8 8 3 21 -13z m-2443 -37 c3 -42 -18 -57 -43 -32 -9 9
-32 16 -51 16 -19 0 -34 5 -34 10 0 6 11 10 25 10 36 0 38 1 64 21 30 24 36
19 39 -25z m1858 -28 c-1 -23 -26 -39 -26 -16 0 11 18 38 26 38 1 0 1 -10 0
-22z"/>
</g>
</svg>
